<svg width="346" height="260" viewBox="0 0 346 260" fill="none" xmlns="http://www.w3.org/2000/svg">
<path d="M449.004 132.5C457.017 93.369 454.547 52.8158 441.844 14.947C429.141 -22.9218 406.656 -56.7611 376.667 -83.1434C346.677 -109.526 310.248 -127.514 271.069 -135.287C231.89 -143.06 191.353 -140.34 153.563 -127.405C115.773 -114.469 82.0725 -91.776 55.8752 -61.6245C29.6778 -31.4731 11.9139 5.06608 4.38245 44.2922C-3.14896 83.5183 -0.180316 124.038 12.9877 161.748C26.1558 199.457 49.0555 233.017 79.3676 259.029L129.186 200.973C109.105 183.741 93.9348 161.509 85.2114 136.528C76.488 111.546 74.5213 84.7029 79.5107 58.7168C84.5 32.7307 96.2681 8.52461 113.623 -11.4498C130.978 -31.4242 153.303 -46.4575 178.338 -55.027C203.373 -63.5966 230.227 -65.398 256.182 -60.2489C282.137 -55.0998 306.27 -43.183 326.138 -25.7054C346.005 -8.2279 360.901 14.1896 369.316 39.2765C377.731 64.3634 379.367 91.2287 374.059 117.151L449.004 132.5Z" fill="url(#paint0_linear_690_1343)"/>
<defs>
<linearGradient id="paint0_linear_690_1343" x1="231.907" y1="192.884" x2="37.0929" y2="212.366" gradientUnits="userSpaceOnUse">
<stop stop-color="#41E5EF"/>
<stop offset="1" stop-color="#326BF0" stop-opacity="0.59"/>
</linearGradient>
</defs>
</svg>
